<svg viewBox="0 0 50 50" xmlns="http://www.w3.org/2000/svg" xmlns:xlink="http://www.w3.org/1999/xlink"><defs><linearGradient id="wg" x1="3.4" x2="34" y1="-34" y2="38" gradientUnits="userSpaceOnUse" xlink:href="#we"/><linearGradient id="we" x1="71" x2="88" y1="167" y2="37" gradientTransform="matrix(.36 0 0 .36 20 21)" gradientUnits="userSpaceOnUse"><stop stop-color="#5d30ff" offset="0"/><stop stop-color="#00bdff" offset="1"/></linearGradient><linearGradient id="wf" x1="14" x2="14" y1="80" y2="-36" gradientUnits="userSpaceOnUse" xlink:href="#we"/></defs><path d="m14 25s-0.93-18 18-18c9.2 0 18 7.2 18 18 0 20-18 25-25 25-6.4 0-11-2-11-2 2.6-9.8 10-12 11-12 8.9-1.3 11-6.4 11-12 0-8.2-5.9-11-11-11s-11 4.2-11 11z" fill="url(#wg)" fill-rule="evenodd"/><path d="m14 48s-14-5.9-14-22c0-17 13-25 25-25 17 0 25 15 25 25 0 0-1.1-18-18-18-8 0-18 6.1-18 18-0.038 12 0 22 0 22z" fill="url(#wf)" fill-rule="evenodd"/></svg>
